# AST/ASF file generated using VICON BodyLanguage
# -----------------------------------------------
:version 1.10
:name VICON
:units
  mass 1.0
  length 0.45
  angle deg
:documentation
   .ast/.asf automatically generated from VICON data using
   VICON BodyBuilder and BodyLanguage model FoxedUp or BRILLIANT.MOD
:root
   order TX TY TZ RX RY RZ
   axis XYZ
   position 0 0 0  
   orientation 0 0 0 
:bonedata
  begin
     id 1 
     name lhipjoint
     direction 0.570549 -0.739093 0.358072 
     length 2.41801 
     axis 0 0 0  XYZ
  end
  begin
     id 2 
     name lfemur
     direction 0.34202 -0.939693 0  
     length 7.44434  
     axis 0 0 20  XYZ
    dof rx ry rz
    limits (-160.0 20.0)
           (-70.0 70.0)
           (-60.0 70.0)
  end
  begin
     id 3 
     name ltibia
     direction 0.34202 -0.939693 0   
     length 7.60047   
     axis 0 0 20   XYZ
    dof rx
    limits (-10.0 170.0)
  end
  begin
     id 4 
     name lfoot
     direction 0.0909041 -0.249757 0.964032   
     length 2.03437   
     axis -90 7.62852e-016 20   XYZ
    dof rx rz
    limits (-45.0 90.0)
           (-70.0 20.0)
  end
  begin
     id 5 
     name ltoes
     direction 1.53547e-011 -4.2174e-011 1   
     length 1.02054   
     axis -90 7.62852e-016 20   XYZ
    dof rx
    limits (-90.0 20.0)
  end
  begin
     id 6 
     name rhipjoint
     direction -0.558096 -0.746754 0.361784   
     length 2.3932  
     axis 0 0 0  XYZ 
  end
  begin
     id 7 
     name rfemur
     direction -0.34202 -0.939693 0   
     length 7.3886   
     axis 0 0 -20   XYZ
    dof rx ry rz
    limits (-160.0 20.0)
           (-70.0 70.0)
           (-70.0 60.0)
  end
  begin
     id 8 
     name rtibia
     direction -0.34202 -0.939693 0   
     length 7.4839   
     axis 0 0 -20   XYZ
    dof rx
    limits (-10.0 170.0)
 end
 begin
     id 9 
     name rfoot
     direction -0.114619 -0.314914 0.942174   
     length 2.25127  
     axis -90 -7.62852e-016 -20   XYZ
    dof rx rz
    limits (-45.0 90.0)
           (-20.0 70.0)
  end
  begin
     id 10 
     name rtoes
     direction -1.53518e-011 -4.21881e-011 1   
     length 1.11821   
     axis -90 -7.62852e-016 -20   XYZ
    dof rx
    limits (-90.0 20.0)
  end
  begin
     id 11 
     name lowerback
     direction -0.00902269 0.996426 -0.0839821   
     length 2.25052   
     axis 0 0 0   XYZ
    dof rx ry rz
    limits (-20.0 45.0)
           (-30.0 30.0)
           (-30.0 30.0)
  end
  begin
     id 12 
     name upperback
     direction 0.0370973 0.999169 -0.0168941   
     length 2.24876   
     axis 0 0 0   XYZ
    dof rx ry rz
    limits (-20.0 45.0)
           (-30.0 30.0)
           (-30.0 30.0)
  end
  begin
     id 13 
     name thorax
     direction 0.0402726 0.998931 0.0227027   
     length 2.26408   
     axis 0 0 0   XYZ
    dof rx ry rz
    limits (-20.0 45.0)
           (-30.0 30.0)
           (-30.0 30.0)
  end
  begin
     id 14 
     name lowerneck
     direction -0.0733697 0.98508 0.155675   
     length 1.58204   
     axis 0 0 0   XYZ
    dof rx ry rz
    limits (-20.0 45.0)
           (-30.0 30.0)
           (-30.0 30.0)
  end
  begin
     id 15 
     name upperneck
     direction 0.0426554 0.993501 -0.105526   
     length 1.61222   
     axis 0 0 0   XYZ
    dof rx ry rz
    limits (-20.0 45.0)
           (-30.0 30.0)
           (-30.0 30.0)
  end
  begin
     id 16
     name head
     direction 0.020792 0.998384 -0.0528868  
     length 1.61527  
     axis 0 0 0   XYZ
    dof rx ry rz
    limits (-20.0 45.0)
           (-30.0 30.0)
           (-30.0 30.0)
  end
  begin
     id 17 
     name lclavicle
     direction 0.967109 0.155462 -0.201325  
     length 3.59357  
     axis 0 0 0   XYZ
    dof ry rz
    limits (-20.0 10.0)
           (0.0 20.0)
  end
  begin
     id 18 
     name lhumerus
     direction 1 -4.48968e-011 2.38195e-027   
     length 5.38154   
     axis 180 -30 -90   XYZ
    dof rx ry rz
    limits (-60.0 90.0)
           (-90.0 90.0)
           (-90.0 90.0)
  end
  begin
     id 19
     name lradius
     direction 1 -4.48961e-011 4.85371e-027   
     length 3.33312   
     axis 180 -30 -90   XYZ
    dof rx
    limits (-10.0 170.0)
  end
  begin
     id 20
     name lwrist
     direction 1 -4.48961e-011 4.76515e-027   
     length 1.66656   
     axis -3.27502e-015 90 90   XYZ
    dof ry
    limits (-180.0 0.0)
 end
  begin
     id 21 
     name lhand
     direction 1 -4.48951e-011 9.53074e-027   
     length 0.710789   
     axis -6.08098e-015 90 90   XYZ
    dof rx rz
    limits (-90.0 90.0)
           (-45.0 45.0)
  end
  begin
     id 22 
     name lfingers
     direction 1 -4.48953e-011 1.90613e-026   
     length 0.573057   
     axis -1.21619e-014 90 90   XYZ
    dof rx
    limits (0.0 90.0)
  end
  begin
     id 23
     name lthumb
     direction 0.707107 -6.34973e-011 0.707107   
     length 0.822798   
     axis -90 45 -9.86923e-015   XYZ
    dof rx rz
    limits (-45.0 45.0)
           (-45.0 45.0)
  end
  begin
     id 24 
     name rclavicle
     direction -0.9585 0.265289 -0.104398   
     length 3.42039  
     axis 0 0 0   XYZ 
    dof ry rz
    limits (-10.0 20.0)
           (-20.0 0.0)
  end
  begin
     id 25 
     name rhumerus
     direction -1 -4.48977e-011 2.21478e-027  
     length 5.16954   
     axis 180 30 90   XYZ
    dof rx ry rz
    limits (-90.0 60.0)
           (-90.0 90.0)
           (-90.0 90.0)
  end
  begin
     id 26 
     name rradius
     direction -1 -4.48967e-011 5.63677e-027   
     length 3.38287   
     axis 180 30 90   XYZ
    dof rx
    limits (-10.0 170.0)
  end
  begin
     id 27 
     name rwrist
     direction -1 -4.48967e-011 4.76501e-027   
     length 1.69144   
     axis -3.27502e-015 -90 -90   XYZ
    dof ry
    limits (-180.0 0.0)
  end
  begin
     id 28
     name rhand
     direction -1 -4.48902e-011 9.53292e-027   
     length 0.817967   
     axis -6.08098e-015 -90 -90   XYZ
    dof rx rz
    limits (-90.0 90.0)
           (-45.0 45.0)
  end
  begin
     id 29
     name rfingers
     direction -1 -4.49012e-011 1.90561e-026   
     length 0.659466   
     axis -1.21619e-014 -90 -90   XYZ
    dof rx
    limits (0.0 90.0)
  end
  begin
     id 30
     name rthumb
     direction -0.707107 -6.34944e-011 0.707107   
     length 0.946865   
     axis -90 -45 9.86923e-015   XYZ
    dof rx rz
    limits (-45.0 45.0)
           (-45.0 45.0)
  end
:hierarchy
  begin
    root lhipjoint rhipjoint lowerback
    lhipjoint lfemur
    lfemur ltibia
    ltibia lfoot
    lfoot ltoes
    rhipjoint rfemur
    rfemur rtibia
    rtibia rfoot
    rfoot rtoes
    lowerback upperback
    upperback thorax
    thorax lowerneck lclavicle rclavicle
    lowerneck upperneck
    upperneck head
    lclavicle lhumerus
    lhumerus lradius
    lradius lwrist
    lwrist lhand lthumb
    lhand lfingers
    rclavicle rhumerus
    rhumerus rradius
    rradius rwrist
    rwrist rhand rthumb
    rhand rfingers
  end

#!OML:ASF F:\twosubjects\two\wednesday\Session 1\Justin1.ASF
:FULLY-SPECIFIED
:DEGREES
121
root 9.16074 17.639 -14.4286 0.772578 -2.61025 -2.23343
lowerback 2.10189 0.00857302 -0.062098
upperback -0.967793 0.0851116 3.73918
thorax -2.18026 0.0710252 3.88466
lowerneck -21.6704 -2.7293 -8.68305
upperneck 18.3706 -2.20913 5.40645
head 9.53698 -1.02177 2.99833
rclavicle -1.90088e-015 -7.95139e-016
rhumerus 11.2441 1.04265 -46.9129
rradius 110.073
rwrist 7.83882
rhand -23.4892 35.8086
rfingers 7.12502
rthumb 2.97064 5.84953
lclavicle -1.90088e-015 -7.95139e-016
lhumerus 9.26828 -2.21312 54.5666
lradius 107.6
lwrist -26.6994
lhand -6.20355 33.9431
lfingers 7.12502
lthumb 19.6367 62.9713
rfemur -2.30171 1.23222 17.9606
rtibia 15.0853
rfoot -10.1987 -10.3305
rtoes -6.43988
lfemur -5.84247 0.174454 -12.6458
ltibia 22.2998
lfoot -14.7904 3.00936
ltoes -12.5671
122
root 9.15924 17.6403 -14.4302 0.797323 -2.55725 -2.11509
lowerback 2.09018 -0.0256264 -0.233952
upperback -0.94292 0.0328105 3.71595
thorax -2.14462 0.0465586 3.9597
lowerneck -21.956 -2.72069 -8.50567
upperneck 18.5626 -2.18318 5.18994
head 9.64884 -1.02114 2.89911
rclavicle -4.79257e-015 1.66979e-014
rhumerus 11.304 1.03584 -46.996
rradius 110.082
rwrist 7.52598
rhand -23.1635 36.0486
rfingers 7.12502
rthumb 3.2852 6.09421
lclavicle -4.79257e-015 1.66979e-014
lhumerus 9.27173 -2.29008 54.5801
lradius 107.7
lwrist -26.5752
lhand -5.80689 34.3573
lfingers 7.12502
lthumb 20.018 63.3461
rfemur -2.4265 1.20446 17.8372
rtibia 15.2819
rfoot -10.3291 -10.3691
rtoes -6.82733
lfemur -5.83185 0.178025 -12.773
ltibia 22.166
lfoot -14.5654 2.99812
ltoes -12.9265
123
root 9.1615 17.637 -14.4271 0.742797 -2.40883 -1.74647
lowerback 2.09624 -0.0831562 -0.599407
upperback -0.857169 -0.059333 3.60726
thorax -2.05299 0.00282709 4.05674
lowerneck -22.298 -2.76411 -8.46975
upperneck 18.7581 -2.22793 5.18556
head 9.78186 -1.0381 2.88813
rclavicle -7.62526e-015 -1.43125e-014
rhumerus 11.3936 0.969961 -47.0362
rradius 110.052
rwrist 6.73641
rhand -23.264 36.6164
rfingers 7.12502
rthumb 3.18819 6.66046
lclavicle -7.62526e-015 -1.43125e-014
lhumerus 9.29581 -2.22516 54.5191
lradius 107.874
lwrist -26.0986
lhand -5.81877 34.4277
lfingers 7.12502
lthumb 20.0066 63.4177
rfemur -2.42205 0.891865 17.3904
rtibia 15.455
rfoot -10.4594 -10.2107
rtoes -6.62611
lfemur -5.7302 0.137558 -13.2003
ltibia 22.0574
lfoot -14.5739 2.90357
ltoes -13.2891
124
root 9.16478 17.6326 -14.4211 0.643964 -2.31366 -1.51917
lowerback 2.09531 -0.102524 -0.828186
upperback -0.658162 -0.0981911 3.54898
thorax -1.84451 -0.0189255 4.12594
lowerneck -22.8013 -2.81751 -8.5558
upperneck 18.8364 -2.27432 5.37631
head 9.90623 -1.03785 2.96514
rclavicle -6.58474e-015 2.22639e-014
rhumerus 11.6491 0.727208 -47.0203
rradius 109.943
rwrist 5.88875
rhand -23.9576 37.6218
rfingers 7.12502
rthumb 2.51829 7.65695
lclavicle -6.58474e-015 2.22639e-014
lhumerus 9.57037 -1.98625 54.5886
lradius 107.992
lwrist -25.1913
lhand -5.79107 34.0223
lfingers 7.12502
lthumb 20.0332 63.0095
rfemur -2.34269 0.637549 17.0975
rtibia 15.5948
rfoot -10.559 -10.0574
rtoes -6.66362
lfemur -5.57207 0.0695592 -13.4762
ltibia 21.996
lfoot -14.517 2.89104
ltoes -14.7616
125
root 9.16239 17.6303 -14.4216 0.642816 -2.36653 -1.771
lowerback 2.1349 -0.136188 -0.703884
upperback -0.677354 -0.136172 3.69566
thorax -1.88366 -0.0378492 4.21
lowerneck -22.6227 -2.73144 -8.54333
upperneck 18.8119 -2.15357 5.28681
head 9.85507 -0.993793 2.94866
rclavicle 3.6154e-015 -1.11319e-014
rhumerus 11.7156 0.838495 -47.0036
rradius 109.813
rwrist 5.26191
rhand -25.5782 39.6705
rfingers 7.12502
rthumb 0.95315 9.6929
lclavicle 3.6154e-015 -1.11319e-014
lhumerus 9.39489 -1.79941 54.7605
lradius 108.12
lwrist -24.2507
lhand -5.67406 33.3205
lfingers 7.12502
lthumb 20.1457 62.2959
rfemur -2.39274 0.727411 17.3965
rtibia 15.6971
rfoot -10.5955 -10.0886
rtoes -7.00395
lfemur -5.5343 0.0621204 -13.1832
ltibia 21.9614
lfoot -14.4112 2.96132
ltoes -15.7942
126
root 9.1604 17.6294 -14.4238 0.6636 -2.42634 -1.78955
lowerback 2.1987 -0.14814 -0.730312
upperback -0.732446 -0.150472 3.70207
thorax -1.97507 -0.042873 4.23309
lowerneck -22.4802 -2.64882 -8.42815
upperneck 18.8245 -2.06626 5.18164
head 9.82483 -0.959363 2.90526
rclavicle -9.00743e-016 -2.14687e-014
rhumerus 11.6544 0.866471 -47.1517
rradius 109.723
rwrist 4.88693
rhand -27.3069 42.0603
rfingers 7.12502
rthumb -0.716511 12.0818
lclavicle -9.00743e-016 -2.14687e-014
lhumerus 9.26747 -1.77514 54.6779
lradius 108.186
lwrist -22.8551
lhand -5.45763 32.8035
lfingers 7.12502
lthumb 20.3537 61.7569
rfemur -2.44937 0.792688 17.4297
rtibia 15.7069
rfoot -10.5364 -10.0916
rtoes -6.92677
lfemur -5.57204 0.0974268 -13.1535
ltibia 21.9946
lfoot -14.3868 2.97372
ltoes -15.331
127
root 9.16323 17.6301 -14.4245 0.604707 -2.43531 -1.6378
lowerback 2.2296 -0.130858 -0.833647
upperback -0.670657 -0.132854 3.64171
thorax -1.9301 -0.034452 4.22791
lowerneck -22.7394 -2.73402 -8.30491
upperneck 19.0206 -2.15756 4.97432
head 9.94433 -1.0168 2.80013
rclavicle -6.1499e-015 -4.77083e-015
rhumerus 11.6931 0.755427 -47.1977
rradius 109.625
rwrist 4.66539
rhand -28.491 43.7459
rfingers 7.12502
rthumb -1.86017 13.7743
lclavicle -6.1499e-015 -4.77083e-015
lhumerus 9.34723 -1.8341 54.6606
lradius 108.294
lwrist -20.7764
lhand -4.73036 32.3034
lfingers 7.12502
lthumb 21.0525 61.1807
rfemur -2.3906 0.752535 17.2372
rtibia 15.6677
rfoot -10.5089 -10.0672
rtoes -6.639
lfemur -5.56764 0.089101 -13.3365
ltibia 22.0866
lfoot -14.4097 3.03326
ltoes -15.346
128
root 9.16439 17.6311 -14.4302 0.538404 -2.52012 -1.70766
lowerback 2.30246 -0.0992426 -0.807758
upperback -0.560608 -0.0907889 3.71036
thorax -1.86118 -0.0155109 4.28289
lowerneck -23.0894 -2.82877 -8.25034
upperneck 19.1562 -2.22973 4.77136
head 10.058 -1.06842 2.70913
rclavicle -3.57812e-015 3.02153e-014
rhumerus 11.9152 0.690622 -47.0648
rradius 109.44
rwrist 4.70875
rhand -29.0629 44.5855
rfingers 7.12502
rthumb -2.41244 14.6194
lclavicle -3.57812e-015 3.02153e-014
lhumerus 9.46797 -1.89421 54.9344
lradius 108.489
lwrist -18.6756
lhand -3.88172 31.7944
lfingers 7.12502
lthumb 21.8675 60.5787
rfemur -2.36239 0.879261 17.312
rtibia 15.6755
rfoot -10.5215 -10.1082
rtoes -6.87373
lfemur -5.53466 0.0629963 -13.2629
ltibia 22.1402
lfoot -14.5176 3.16377
ltoes -14.4338
129
root 9.16538 17.6301 -14.4359 0.545658 -2.61345 -1.85648
lowerback 2.45875 -0.0861379 -0.66304
upperback -0.619322 -0.06445 3.74839
thorax -2.01169 -0.00122298 4.24069
lowerneck -22.899 -2.7643 -8.33691
upperneck 19.0207 -2.16908 4.95388
head 9.97398 -1.02516 2.79631
rclavicle 3.2582e-015 3.33958e-014
rhumerus 11.8167 0.735706 -47.0502
rradius 109.389
rwrist 4.78836
rhand -28.9747 44.7837
rfingers 7.12502
rthumb -2.32728 14.8166
lclavicle 3.2582e-015 3.33958e-014
lhumerus 9.37234 -2.13276 55.0058
lradius 108.756
lwrist -16.6443
lhand -3.54319 31.7383
lfingers 7.12502
lthumb 22.1926 60.4843
rfemur -2.42296 0.971611 17.4823
rtibia 15.7202
rfoot -10.4756 -10.0652
rtoes -7.11722
lfemur -5.54559 0.0361279 -13.1027
ltibia 22.1576
lfoot -14.6252 3.23777
ltoes -13.3883
130
root 9.16643 17.6282 -14.4336 0.515406 -2.57328 -1.78314
lowerback 2.54638 -0.170157 -0.744599
upperback -0.681668 -0.17636 3.75611
thorax -2.11616 -0.0541336 4.30092
lowerneck -22.633 -2.63468 -8.468
upperneck 18.9397 -2.01412 5.14848
head 9.88935 -0.941957 2.90975
rclavicle 1.01256e-015 5.56597e-015
rhumerus 11.6172 0.95472 -47.025
rradius 109.448
rwrist 4.90373
rhand -28.8726 44.8982
rfingers 7.12502
rthumb -2.22871 14.9301
lclavicle 1.01256e-015 5.56597e-015
lhumerus 9.05069 -2.21837 54.6992
lradius 109.066
lwrist -14.6162
lhand -3.62602 32.0747
lfingers 7.12502
lthumb 22.113 60.8302
rfemur -2.40239 0.829769 17.3827
rtibia 15.7965
rfoot -10.5227 -9.91276
rtoes -6.87624
lfemur -5.50379 0.0495156 -13.1928
ltibia 22.1556
lfoot -14.7271 3.16021
ltoes -13.6931
131
root 9.16425 17.6264 -14.4313 0.477046 -2.53856 -1.67613
lowerback 2.56168 -0.144468 -0.892869
upperback -0.468285 -0.153404 3.71522
thorax -1.90663 -0.0464287 4.33993
lowerneck -23.4296 -2.70043 -8.31747
upperneck 19.1519 -2.07937 5.10534
head 10.11 -0.959425 2.86396
rclavicle -6.16232e-015 -7.95139e-015
rhumerus 11.656 0.665195 -46.9188
rradius 109.498
rwrist 5.22524
rhand -29.268 45.5222
rfingers 7.12502
rthumb -2.61057 15.5585
lclavicle -6.16232e-015 -7.95139e-015
lhumerus 9.32974 -2.29548 54.371
lradius 109.164
lwrist -13.3462
lhand -4.08326 32.4453
lfingers 7.12502
lthumb 21.674 61.2521
rfemur -2.36681 0.740045 17.2676
rtibia 15.8494
rfoot -10.5961 -9.88551
rtoes -7.32038
lfemur -5.45018 0.0850275 -13.3049
ltibia 22.15
lfoot -14.729 3.05933
ltoes -13.3286
132
root 9.16291 17.625 -14.4313 0.512185 -2.52595 -1.67854
lowerback 2.65341 -0.144633 -0.877932
upperback -0.711295 -0.146231 3.6789
thorax -2.20914 -0.0361834 4.29588
lowerneck -22.597 -2.63813 -8.2507
upperneck 18.8815 -2.08112 5.09263
head 9.86383 -0.963064 2.84304
rclavicle -3.29237e-015 8.74653e-015
rhumerus 11.1344 0.963266 -46.8323
rradius 109.641
rwrist 5.60221
rhand -29.4034 45.8908
rfingers 7.12502
rthumb -2.74125 15.9286
lclavicle -3.29237e-015 8.74653e-015
lhumerus 8.77287 -2.91522 54.1422
lradius 109.266
lwrist -13.221
lhand -4.74916 32.8401
lfingers 7.12502
lthumb 21.0344 61.7194
rfemur -2.40123 0.68995 17.2788
rtibia 15.8466
rfoot -10.5895 -9.91383
rtoes -7.78153
lfemur -5.47618 0.0561741 -13.3001
ltibia 22.1487
lfoot -14.6271 3.05909
ltoes -12.7304
